<svg width="800" height="800" viewBox="0 0 800 800" fill="none" xmlns="http://www.w3.org/2000/svg">
<g clip-path="url(#clip0_962_8641)">
<path fill-rule="evenodd" clip-rule="evenodd" d="M485.888 274.995C435.064 236.845 365.153 236.845 314.329 274.995L85.9949 446.391C85.7808 446.552 85.5678 446.714 85.3559 446.876H53.4293L53.4293 508.34C52.3909 533.924 63.2461 559.916 85.9949 576.992L314.329 748.388C365.153 786.538 435.064 786.538 485.888 748.388L714.223 576.992C737.009 559.887 747.863 533.837 746.783 508.211V446.876H714.862C714.65 446.714 714.437 446.552 714.223 446.391L485.888 274.995Z" fill="#846D10"/>
<path d="M314.328 207.17C365.151 169.02 435.063 169.02 485.886 207.17L714.221 378.566C757.732 411.228 757.732 476.506 714.221 509.167L485.886 680.563C435.063 718.713 365.151 718.713 314.328 680.563L85.9933 509.167C42.4819 476.506 42.4819 411.228 85.9933 378.566L314.328 207.17Z" fill="#846D10"/>
<path fill-rule="evenodd" clip-rule="evenodd" d="M485.888 204.995C435.064 166.845 365.153 166.845 314.329 204.995L85.9949 376.391C85.7808 376.552 85.5678 376.714 85.3559 376.876H53.4293L53.4293 438.34C52.3909 463.924 63.2461 489.916 85.9949 506.992L314.329 678.388C365.153 716.538 435.064 716.538 485.888 678.388L714.223 506.992C737.009 489.887 747.863 463.837 746.783 438.211V376.876H714.862C714.65 376.714 714.437 376.552 714.223 376.391L485.888 204.995Z" fill="#B1900B"/>
<path d="M314.328 137.17C365.151 99.0203 435.063 99.0203 485.886 137.17L714.221 308.566C757.732 341.228 757.732 406.506 714.221 439.167L485.886 610.563C435.063 648.713 365.151 648.713 314.328 610.563L85.9933 439.167C42.4819 406.506 42.4819 341.228 85.9933 308.566L314.328 137.17Z" fill="#B1900B"/>
<path fill-rule="evenodd" clip-rule="evenodd" d="M485.888 132.214C435.064 94.0641 365.153 94.0641 314.329 132.214L85.9949 303.61C85.7808 303.771 85.5678 303.932 85.3559 304.095H53.4293L53.4293 365.558C52.3909 391.143 63.2461 417.135 85.9949 434.211L314.329 605.607C365.153 643.757 435.064 643.757 485.888 605.607L714.223 434.211C737.009 417.106 747.863 391.056 746.783 365.43V304.095H714.862C714.65 303.932 714.437 303.771 714.223 303.61L485.888 132.214Z" fill="#E1B70E"/>
<path d="M314.328 64.389C365.151 26.239 435.063 26.239 485.886 64.389L714.221 235.785C757.732 268.446 757.732 333.725 714.221 366.386L485.886 537.782C435.063 575.932 365.151 575.932 314.328 537.782L85.9933 366.386C42.4819 333.725 42.4819 268.446 85.9933 235.785L314.328 64.389Z" fill="#FDD226"/>
<path fill-rule="evenodd" clip-rule="evenodd" d="M446.191 189.803C418.887 169.308 381.329 169.308 354.026 189.803L231.36 281.881C231.245 281.967 231.13 282.054 231.016 282.141H213.865L213.865 315.16C213.307 328.905 219.138 342.868 231.36 352.042L354.026 444.12C381.329 464.615 418.887 464.615 446.191 444.12L568.857 352.042C581.098 342.853 586.929 328.859 586.349 315.092V282.141H569.2C569.086 282.054 568.972 281.967 568.857 281.881L446.191 189.803Z" fill="#EEEEEE"/>
<path d="M354.026 153.369C381.329 132.874 418.887 132.874 446.191 153.369L568.857 245.446C592.232 262.992 592.232 298.061 568.857 315.608L446.191 407.685C418.887 428.18 381.329 428.18 354.026 407.685L231.36 315.608C207.984 298.061 207.984 262.992 231.36 245.446L354.026 153.369Z" fill="white"/>
</g>
<defs>
<clipPath id="clip0_962_8641">
<rect width="800" height="800" fill="white"/>
</clipPath>
</defs>
</svg>
